<svg width="150" height="50" viewBox="0 0 150 50" fill="none" xmlns="http://www.w3.org/2000/svg">
<rect width="150" height="50" rx="5" fill="#FE1B54"/>
<path d="M48.2021 36.4091C46.7779 35.7032 45.6788 34.7002 44.9044 33.402C44.1299 32.1032 43.7427 30.5999 43.7427 28.891V13.7869C43.7427 13.6276 43.7884 13.5022 43.8791 13.4108C43.9699 13.32 44.0953 13.2743 44.2553 13.2743H49.655C49.8144 13.2743 49.9397 13.32 50.0311 13.4108C50.1219 13.5022 50.1676 13.6276 50.1676 13.7869V28.891C50.1676 29.8255 50.4354 30.5712 50.9708 31.1295C51.5056 31.6878 52.2181 31.9667 53.1068 31.9667C53.9956 31.9667 54.6727 31.682 55.2082 31.1125C55.743 30.5431 56.0114 29.8026 56.0114 28.891V13.7869C56.0114 13.6276 56.0571 13.5022 56.1479 13.4108C56.2386 13.32 56.364 13.2743 56.524 13.2743H61.9231C62.0824 13.2743 62.2078 13.32 62.2992 13.4108C62.39 13.5022 62.4357 13.6276 62.4357 13.7869V28.891C62.4357 30.5999 62.0478 32.1032 61.274 33.402C60.4995 34.7008 59.4057 35.7032 57.9933 36.4091C56.5802 37.1156 54.9522 37.4683 53.1068 37.4683C51.2614 37.4683 49.6263 37.115 48.2027 36.4091H48.2021Z" fill="white"/>
<path d="M78.4957 13.4109C78.5865 13.3202 78.7118 13.2745 78.8718 13.2745H84.2709C84.4303 13.2745 84.5556 13.3202 84.647 13.4109C84.7378 13.5024 84.7835 13.6277 84.7835 13.7871V36.6829C84.7835 36.8422 84.7378 36.9682 84.647 37.059C84.5556 37.1504 84.4303 37.1955 84.2709 37.1955H79.1108C78.8372 37.1955 78.6322 37.0819 78.4957 36.854L71.5242 25.235C71.4785 25.1664 71.4328 25.1383 71.3877 25.1494C71.3413 25.1612 71.3191 25.2128 71.3191 25.3029L71.3877 36.6822C71.3877 36.8416 71.3413 36.9676 71.2512 37.0584C71.1598 37.1498 71.0344 37.1948 70.8751 37.1948H65.476C65.3167 37.1948 65.1906 37.1498 65.0999 37.0584C65.0085 36.9676 64.9634 36.8422 64.9634 36.6822V13.7864C64.9634 13.6271 65.0085 13.5017 65.0999 13.4103C65.1906 13.3195 65.316 13.2738 65.476 13.2738H70.6361C70.9097 13.2738 71.1147 13.3881 71.2512 13.6153L78.1881 25.2343C78.2332 25.3029 78.2789 25.3316 78.3246 25.3199C78.3697 25.3088 78.3932 25.2572 78.3932 25.1658L78.3592 13.7864C78.3592 13.6271 78.4043 13.5017 78.4957 13.4103V13.4109Z" fill="white"/>
<path d="M91.6347 36.3412C90.2104 35.5895 89.1062 34.5297 88.32 33.163C87.5344 31.7962 87.1406 30.2244 87.1406 28.4469V21.988C87.1406 20.2112 87.5337 18.6453 88.32 17.289C89.1062 15.934 90.2104 14.88 91.6347 14.1277C93.0582 13.3761 94.7044 13 96.5727 13C98.4409 13 100.024 13.3592 101.459 14.0762C102.894 14.7938 104.005 15.7675 104.791 16.9977C105.577 18.228 105.971 19.5725 105.971 21.03V21.064C105.971 21.2233 105.924 21.3494 105.834 21.4401C105.742 21.5316 105.617 21.5766 105.458 21.5766H100.093C99.7515 21.5766 99.5804 21.4741 99.5804 21.2691C99.5804 20.5174 99.3121 19.8677 98.7773 19.3211C98.2418 18.7746 97.5072 18.5009 96.5734 18.5009C95.6395 18.5009 94.933 18.8033 94.3864 19.4067C93.8398 20.0107 93.5662 20.8139 93.5662 21.8156V28.65C93.5662 29.6295 93.879 30.4268 94.5059 31.042C95.1322 31.6571 95.9125 31.9647 96.847 31.9647C97.6893 31.9647 98.3789 31.7316 98.9144 31.264C99.4499 30.7971 99.7176 30.1532 99.7176 29.3331V28.889C99.7176 28.7754 99.6608 28.7179 99.5465 28.7179H96.5394C96.3794 28.7179 96.254 28.6729 96.1632 28.5814C96.0718 28.4907 96.0268 28.3653 96.0268 28.2053V24.1044C96.0268 23.9451 96.0718 23.8197 96.1632 23.7283C96.254 23.6375 96.3794 23.5918 96.5394 23.5918H105.459C105.618 23.5918 105.743 23.6375 105.834 23.7283C105.925 23.8197 105.971 23.9451 105.971 24.1044V28.7858C105.971 30.4719 105.578 31.9758 104.792 33.2968C104.006 34.6185 102.901 35.6437 101.477 36.3725C100.053 37.1019 98.4188 37.4663 96.5734 37.4663C94.7279 37.4663 93.0589 37.0902 91.6353 36.3385L91.6347 36.3412Z" fill="white"/>
<path d="M120.323 36.8191L116.564 28.1393C116.518 28.0486 116.45 28.0029 116.359 28.0029H114.924C114.809 28.0029 114.752 28.0597 114.752 28.174V36.6833C114.752 36.8426 114.707 36.9687 114.616 37.0594C114.525 37.1509 114.399 37.1959 114.24 37.1959H108.841C108.681 37.1959 108.555 37.1509 108.465 37.0594C108.373 36.9687 108.328 36.8433 108.328 36.6833V13.7875C108.328 13.6282 108.373 13.5028 108.465 13.4114C108.555 13.3206 108.681 13.2749 108.841 13.2749H119.195C120.744 13.2749 122.105 13.5942 123.279 14.2316C124.452 14.8695 125.364 15.7642 126.013 16.9141C126.663 18.0647 126.987 19.3916 126.987 20.8955C126.987 22.3994 126.616 23.7146 125.876 24.8423C125.135 25.97 124.116 26.7961 122.817 27.3198C122.703 27.3655 122.669 27.4452 122.715 27.5588L127.054 36.5801C127.1 36.7166 127.123 36.7969 127.123 36.8191C127.123 36.9334 127.077 37.0242 126.986 37.0928C126.894 37.1613 126.781 37.1953 126.644 37.1953H120.903C120.607 37.1953 120.413 37.0706 120.322 36.8191H120.323ZM114.752 18.9469V22.9453C114.752 23.0596 114.809 23.1164 114.924 23.1164H118.136C118.864 23.1164 119.457 22.9172 119.913 22.5182C120.368 22.1199 120.596 21.6014 120.596 20.9634C120.596 20.3254 120.368 19.773 119.913 19.3747C119.457 18.9763 118.864 18.7765 118.136 18.7765H114.924C114.809 18.7765 114.752 18.8333 114.752 18.9476V18.9469Z" fill="white"/>
<path d="M31.5926 13.7335V19.5642C31.5926 19.9188 31.3354 20.2375 30.9821 20.2728C30.5772 20.3139 30.2324 19.9933 30.2324 19.5962V13.7329C30.2324 13.4795 30.4381 13.2738 30.6915 13.2738H31.1342C31.3876 13.2738 31.5933 13.4795 31.5933 13.7329L31.5926 13.7335Z" fill="white"/>
<path d="M34.2899 13.7332V19.5646C34.2899 19.9192 34.0326 20.2372 33.6793 20.2731C33.2745 20.3143 32.9297 19.9936 32.9297 19.5966V13.7332C32.9297 13.4799 33.1354 13.2742 33.3887 13.2742H33.8315C34.0848 13.2742 34.2905 13.4799 34.2905 13.7332H34.2899Z" fill="white"/>
<path d="M35.6096 19.4838C35.6096 20.8825 34.7404 22.0873 33.5154 22.5862V25.0605H31.0059V22.5862C29.7809 22.0873 28.9117 20.8825 28.9117 19.4838V13.8313C28.9117 13.5237 28.6622 13.2743 28.3547 13.2743H23.5126C23.3533 13.2743 23.2272 13.32 23.1365 13.4108C23.045 13.5022 23 13.6276 23 13.7869V36.6827C23 36.842 23.045 36.9681 23.1365 37.0588C23.2272 37.1503 23.3526 37.1953 23.5126 37.1953H30.5507C30.7101 37.1953 30.8354 37.1503 30.9269 37.0588C31.0176 36.9681 31.0634 36.8427 31.0634 36.6827V30.5229H33.4586V36.6827C33.4586 36.842 33.5043 36.9681 33.5951 37.0588C33.6858 37.1503 33.8112 37.1953 33.9712 37.1953H41.0093C41.1687 37.1953 41.294 37.1503 41.3855 37.0588C41.4762 36.9681 41.5219 36.8427 41.5219 36.6827V13.7869C41.5219 13.6276 41.4762 13.5022 41.3855 13.4108C41.294 13.32 41.1687 13.2743 41.0093 13.2743H36.1672C35.8597 13.2743 35.6102 13.5237 35.6102 13.8313V19.4838H35.6096Z" fill="white"/>
</svg>
